<?xml version="1.0" encoding="utf-8"?>
<!-- Generator: Adobe Illustrator 19.0.0, SVG Export Plug-In . SVG Version: 6.00 Build 0)  -->
<svg version="1.0" id="Layer_1" xmlns="http://www.w3.org/2000/svg" xmlns:xlink="http://www.w3.org/1999/xlink" x="0px" y="0px"
	 viewBox="0 0 612 792" style="enable-background:new 0 0 612 792;" xml:space="preserve">
<style type="text/css">
	.st0{opacity:0.2;fill:#231F20;stroke:#231F20;stroke-width:1.7654;stroke-miterlimit:10;}
	.st1{fill:none;}
	.st2{fill:#FFFFFF;}
	.st3{font-family:'MyriadPro-Regular';}
	.st4{font-size:56px;}
	.st5{font-size:89px;}
	.st6{fill:#231F20;}
	.st7{fill:#E6E7E8;stroke:#E6E7E8;stroke-width:0.4246;stroke-miterlimit:10;}
</style>
<image style="overflow:visible;" width="400" height="300" id="XMLID_1_" xlink:href="ip5.jpg"  transform="matrix(1.53 0 0 2.64 0 0)">
</image>
<polygon id="XMLID_5_" class="st0" points="306,141.5 375.6,282.6 531.3,305.2 418.6,415 445.2,570.1 306,496.9 166.8,570.1 
	193.4,415 80.7,305.2 236.4,282.6 "/>
<polygon id="XMLID_4_" class="st1" points="536.9,276.7 444.4,232 355.2,282.8 369.1,181.1 293.2,112 394.3,93.8 436.6,0.2 
	485.1,90.7 587.2,102 516.1,176.1 "/>
<rect id="XMLID_10_" x="38.7" y="47.3" class="st1" width="191.9" height="210.8"/>
<text id="XMLID_11_" transform="matrix(1 0 0 1 38.7295 87.084)"><tspan x="0" y="0" class="st2 st3 st4">OVER </tspan><tspan x="0" y="67.2" class="st2 st3 st4">30% </tspan><tspan x="0" y="134.4" class="st2 st3 st4">OFF</tspan></text>
<rect id="XMLID_7_" x="68.5" y="491.9" class="st1" width="377" height="178.4"/>
<text id="XMLID_8_" transform="matrix(1 0 0 1 68.4595 531.6787)" class="st3 st4">GET YOURS</text>
<polygon id="XMLID_9_" points="80.7,687.1 86.6,699 99.8,700.9 90.2,710.2 92.5,723.3 80.7,717.2 68.9,723.3 71.2,710.2 61.7,700.9 
	74.8,699 "/>
<polygon id="XMLID_12_" points="336,687.1 341.8,699 355,700.9 345.5,710.2 347.7,723.3 336,717.2 324.2,723.3 326.4,710.2 
	316.9,700.9 330.1,699 "/>
<polygon id="XMLID_13_" points="237.9,687.1 243.8,699 257,700.9 247.4,710.2 249.7,723.3 237.9,717.2 226.1,723.3 228.4,710.2 
	218.9,700.9 232,699 "/>
<polygon id="XMLID_14_" points="163.3,687.1 169.1,699 182.3,700.9 172.8,710.2 175,723.3 163.3,717.2 151.5,723.3 153.7,710.2 
	144.2,700.9 157.4,699 "/>
<polygon id="XMLID_15_" points="412.1,687.1 418,699 431.2,700.9 421.6,710.2 423.9,723.3 412.1,717.2 400.3,723.3 402.6,710.2 
	393.1,700.9 406.2,699 "/>
<rect id="XMLID_16_" x="96.8" y="597.3" class="st1" width="122" height="73"/>
<text id="XMLID_17_" transform="matrix(1 0 0 1 135.0244 660.5137)" class="st3 st5">5</text>
<polygon id="XMLID_18_" class="st6" points="500.7,262.1 387.5,196.3 387.9,65.4 501.4,0.2 614.7,66 614.3,196.9 "/>
<polygon id="XMLID_19_" class="st7" points="501.1,75.1 518.1,109.6 556.2,115.2 528.6,142 535.1,179.9 501.1,162 467,179.9 
	473.5,142 446,115.1 484.1,109.6 "/>
</svg>
