<?xml version="1.0" encoding="utf-8"?>
<!-- Generator: Adobe Illustrator 19.0.0, SVG Export Plug-In . SVG Version: 6.00 Build 0)  -->
<svg version="1.0" id="Layer_1" xmlns="http://www.w3.org/2000/svg" xmlns:xlink="http://www.w3.org/1999/xlink" x="0px" y="0px"
	 viewBox="0 0 612 792" style="enable-background:new 0 0 612 792;" xml:space="preserve">
<style type="text/css">
	.st0{fill:#39B54A;}
	.st1{opacity:0.1;fill:#009444;stroke:#39B54A;stroke-width:1.0052;stroke-miterlimit:10;}
	.st2{opacity:0.5;fill:#2BB673;}
	.st3{fill:none;}
	.st4{fill:#FFFFFF;}
	.st5{font-family:'MyriadPro-Regular';}
	.st6{font-size:48px;}
</style>
<image style="overflow:visible;" width="400" height="267" id="XMLID_1_" xlink:href="lap12.png"  transform="matrix(1.53 0 0 2.9663 0 0)">
</image>
<path id="XMLID_28_" class="st0" d="M612,0v93.3c-3.6,0.4-7.3,0.7-11.1,0.7c-41.8,0-75.7-27.5-75.7-61.5c0-11.9,4.2-23,11.4-32.5
	H612z"/>
<rect id="XMLID_34_" class="st1" width="612" height="792"/>
<polygon id="XMLID_6_" class="st2" points="248.5,767.9 80.3,767.4 -3.3,621.4 81.2,476 249.4,476.6 333.1,622.5 "/>
<rect id="XMLID_7_" x="64.4" y="563.5" class="st3" width="218.9" height="113.5"/>
<text id="XMLID_8_" transform="matrix(1 0 0 1 64.4053 597.6211)"><tspan x="0" y="0" class="st4 st5 st6">On OFFRE</tspan><tspan x="0" y="57.6" class="st4 st5 st6">20% OFF</tspan></text>
<polygon id="XMLID_9_" class="st4" points="91.4,677.8 96.8,688.6 108.7,690.4 100.1,698.8 102.1,710.7 91.4,705.1 80.7,710.7 
	82.8,698.8 74.1,690.4 86.1,688.6 "/>
<polygon id="XMLID_10_" class="st4" points="199,694.2 204.3,705.1 216.3,706.8 207.6,715.2 209.7,727.1 199,721.5 188.3,727.1 
	190.4,715.2 181.7,706.8 193.7,705.1 "/>
<polygon id="XMLID_11_" class="st4" points="242.8,668.6 248.2,679.4 260.1,681.1 251.5,689.6 253.5,701.5 242.8,695.8 232.2,701.5 
	234.2,689.6 225.6,681.1 237.5,679.4 "/>
<polygon id="XMLID_12_" class="st4" points="136.9,694.2 142.3,705.1 154.2,706.8 145.6,715.2 147.6,727.1 136.9,721.5 126.2,727.1 
	128.3,715.2 119.6,706.8 131.6,705.1 "/>
<polygon id="XMLID_13_" class="st4" points="41.5,629.7 46.8,640.6 58.8,642.3 50.1,650.7 52.2,662.6 41.5,657 30.8,662.6 
	32.8,650.7 24.2,642.3 36.2,640.6 "/>
<polygon id="XMLID_14_" class="st4" points="41.5,576.3 46.8,587.2 58.8,588.9 50.1,597.3 52.2,609.2 41.5,603.6 30.8,609.2 
	32.8,597.3 24.2,588.9 36.2,587.2 "/>
<polygon id="XMLID_15_" class="st4" points="47.1,530.7 52.5,541.5 64.4,543.2 55.8,551.6 57.8,563.5 47.1,557.9 36.4,563.5 
	38.5,551.6 29.8,543.2 41.8,541.5 "/>
<polygon id="XMLID_16_" class="st4" points="91.4,497.8 96.8,508.6 108.7,510.3 100.1,518.8 102.1,530.7 91.4,525 80.7,530.7 
	82.8,518.8 74.1,510.3 86.1,508.6 "/>
<polygon id="XMLID_17_" class="st4" points="136.9,481.3 142.3,492.1 154.2,493.9 145.6,502.3 147.6,514.2 136.9,508.6 126.2,514.2 
	128.3,502.3 119.6,493.9 131.6,492.1 "/>
<polygon id="XMLID_18_" class="st4" points="199,490.6 204.3,501.4 216.3,503.1 207.6,511.5 209.7,523.4 199,517.8 188.3,523.4 
	190.4,511.5 181.7,503.1 193.7,501.4 "/>
<polygon id="XMLID_19_" class="st4" points="255,514.2 260.4,525 272.3,526.8 263.7,535.2 265.7,547.1 255,541.5 244.3,547.1 
	246.4,535.2 237.7,526.8 249.7,525 "/>
<polygon id="XMLID_20_" class="st4" points="291.9,559.9 297.2,570.7 309.1,572.5 300.5,580.9 302.5,592.8 291.9,587.2 281.2,592.8 
	283.2,580.9 274.6,572.5 286.5,570.7 "/>
<polygon id="XMLID_21_" class="st4" points="283.3,635.7 288.7,646.5 300.6,648.2 292,656.7 294,668.6 283.3,662.9 272.6,668.6 
	274.7,656.7 266,648.2 278,646.5 "/>
<path id="XMLID_24_" class="st0" d="M0,0h107.6c16.8,21.8,26.8,49.9,26.8,80.4c0,69.6-52.2,126-116.6,126c-6.1,0-12.1-0.5-17.9-1.5
	V0z"/>
<path id="XMLID_27_" class="st0" d="M612,627.4V792H485.7c-24.7-18-40.2-44.2-40.2-73.2c0-54.4,54.2-98.5,121.2-98.5
	C582.7,620.3,598,622.8,612,627.4z"/>
</svg>
